<svg width="36" height="36" fill="none" xmlns="http://www.w3.org/2000/svg"><path fill-rule="evenodd" clip-rule="evenodd" d="M18 9.897c-.728-.023-1.936-.158-2.848-1.055-1.574-1.55-3.014-3.7-5.223-3.7H7.635a3.35 3.35 0 00-3.35 3.35v.564a2.786 2.786 0 002.786 2.786 2.786 2.786 0 012.786 2.785v12.23a4 4 0 004 4h8.286a4 4 0 004-4v-12.23a2.786 2.786 0 012.786-2.786 2.786 2.786 0 002.785-2.785v-.564c0-1.85-1.5-3.35-3.35-3.35h-2.293c-2.209 0-3.649 2.15-5.223 3.7-.912.897-2.12 1.032-2.848 1.055z" fill="#FF3D00"/><path d="M26.143 14.627v12.23a4 4 0 01-4 4h-8.286c2.762-.725 6.929-10.674 8.286-19.015 1.357-8.342 6.785 0 6.785 0a2.786 2.786 0 00-2.785 2.785z" fill="#000" fill-opacity=".15"/></svg>