<svg width="36" height="36" fill="none" xmlns="http://www.w3.org/2000/svg"><path d="M14.786 28.814V9.746a29.776 29.776 0 00-8.297-1.178h-1.4c-.443 0-.803.389-.803.869v17.387c0 .48.36.87.803.87h1.4c2.814 0 5.6.417 8.3 1.244a2.34 2.34 0 01-.003-.124z" fill="#FFA000"/><path d="M30.91 8.568h-1.4c-2.809 0-5.591.395-8.296 1.178 0 0 0 19.15-.002 19.192a28.295 28.295 0 018.299-1.245h1.4c.443 0 .803-.39.803-.869V9.437c0-.48-.36-.87-.803-.87z" fill="#FF8F00"/><path d="M29.51 8.568h1.4c.444 0 .804.389.804.869v17.387c0 .48-.36.87-.803.87h-1.4c-2.814 0-5.6.417-8.3 1.244 2.767-3.434 8.3-12.316 8.3-20.37z" fill="#000" fill-opacity=".1"/><path d="M18 30.857c-1.113 0-1.607-1.033-1.607-1.425V10.306c.157.853.803 1.425 1.607 1.425.804 0 1.45-.572 1.607-1.425v19.126c0 .392-.494 1.425-1.607 1.425z" fill="#FF6F00"/><path d="M28.946 6.835c-3.44.061-6.834.688-10.101 1.866-.32.115-.605.298-.845.53a2.358 2.358 0 00-.845-.53 31.348 31.348 0 00-10.1-1.866l.56-1.212a.797.797 0 01.76-.479c5.424.313 9.32 1.942 9.625 2.03.16-.047 4.362-1.727 9.625-2.03.319-.018.618.17.76.48l.56 1.21z" fill="#E65100"/></svg>