<?xml version="1.0" encoding="UTF-8" standalone="no"?>
<svg
   xmlns:dc="http://purl.org/dc/elements/1.1/"
   xmlns:cc="http://creativecommons.org/ns#"
   xmlns:rdf="http://www.w3.org/1999/02/22-rdf-syntax-ns#"
   xmlns:svg="http://www.w3.org/2000/svg"
   xmlns="http://www.w3.org/2000/svg"
   xmlns:sodipodi="http://sodipodi.sourceforge.net/DTD/sodipodi-0.dtd"
   xmlns:inkscape="http://www.inkscape.org/namespaces/inkscape"
   inkscape:version="1.0 (4035a4fb49, 2020-05-01)"
   sodipodi:docname="camera.svg"
   xml:space="preserve"
   enable-background="new 0 0 512 512"
   viewBox="0 0 512 512"
   height="512px"
   width="512px"
   y="0px"
   x="0px"
   id="Layer_1"
   version="1.1"><metadata
   id="metadata13"><rdf:RDF><cc:Work
       rdf:about=""><dc:format>image/svg+xml</dc:format><dc:type
         rdf:resource="http://purl.org/dc/dcmitype/StillImage" /><dc:title></dc:title></cc:Work></rdf:RDF></metadata><defs
   id="defs11" /><sodipodi:namedview
   inkscape:current-layer="Layer_1"
   inkscape:window-maximized="1"
   inkscape:window-y="-9"
   inkscape:window-x="-9"
   inkscape:cy="371.8562"
   inkscape:cx="280.17108"
   inkscape:zoom="0.81054688"
   showgrid="false"
   id="namedview9"
   inkscape:window-height="1001"
   inkscape:window-width="1920"
   inkscape:pageshadow="2"
   inkscape:pageopacity="0"
   guidetolerance="10"
   gridtolerance="10"
   objecttolerance="10"
   borderopacity="1"
   bordercolor="#666666"
   pagecolor="#ffffff" />
<g
   style="fill:#ffa500;fill-opacity:1"
   id="g6">
	<circle
   style="fill:#ffa500;fill-opacity:1"
   id="circle2"
   r="75.217"
   cy="285.309"
   cx="255.811" />
	<path
   style="fill:#ffa500;fill-opacity:1"
   id="path4"
   d="M477,137H352.718L349,108c0-16.568-13.432-30-30-30H191c-16.568,0-30,13.432-30,30l-3.718,29H34   c-11.046,0-20,8.454-20,19.5v258c0,11.046,8.954,20.5,20,20.5h443c11.046,0,20-9.454,20-20.5v-258C497,145.454,488.046,137,477,137   z M255.595,408.562c-67.928,0-122.994-55.066-122.994-122.993c0-67.928,55.066-122.994,122.994-122.994   c67.928,0,122.994,55.066,122.994,122.994C378.589,353.495,323.523,408.562,255.595,408.562z M474,190H369v-31h105V190z" />
</g>
</svg>
