<svg width="36" height="36" viewBox="0 0 36 36" fill="none" xmlns="http://www.w3.org/2000/svg">
<g clip-path="url(#clip0)">
<path d="M29.25 36H6.75C3.02175 36 0 32.9782 0 29.25V6.75C0 3.02175 3.02175 0 6.75 0H29.25C32.9782 0 36 3.02175 36 6.75V29.25C36 32.9782 32.9782 36 29.25 36Z" fill="#FFE6E2"/>
<path d="M19.6875 9H11.0621C9.9225 9 9 9.9225 9 11.0621V22.6868C9 23.8275 9.9225 24.75 11.0621 24.75H16.0042C15.5992 23.895 15.3743 22.9421 15.3743 21.9375C15.3743 21.0746 15.5396 20.25 15.8468 19.4929C15.8164 19.5007 15.7871 19.5007 15.7489 19.5007H11.9993C11.5864 19.5007 11.2489 19.1632 11.2489 18.7504C11.2489 18.3375 11.5875 18 12.0004 18H15.75C16.0346 18 16.29 18.1654 16.4104 18.405C16.8975 17.6479 17.5275 17.0021 18.27 16.5004H12.0004C11.5875 16.5004 11.25 16.1629 11.25 15.75C11.25 15.3371 11.5875 14.9996 12.0004 14.9996H18.7504C19.1632 14.9996 19.5007 15.3371 19.5007 15.75C19.5007 15.7871 19.5007 15.8175 19.4929 15.8479C20.1904 15.5633 20.9554 15.3979 21.7507 15.3832V11.0632C21.7496 9.9225 20.8271 9 19.6875 9ZM14.9996 13.5H11.9993C11.5875 13.5 11.25 13.1625 11.25 12.7496C11.25 12.3368 11.5875 11.9993 12.0004 11.9993H15.0007C15.4136 11.9993 15.7511 12.3368 15.7511 12.7496C15.7511 13.1625 15.4125 13.5 14.9996 13.5Z" fill="#FC573B"/>
<path d="M21.9375 16.875C19.1464 16.875 16.875 19.1464 16.875 21.9375C16.875 24.7286 19.1464 27 21.9375 27C24.7286 27 27 24.7286 27 21.9375C27 19.1464 24.7286 16.875 21.9375 16.875ZM23.9996 22.6879H22.6868V24.0007C22.6868 24.4147 22.3504 24.7511 21.9364 24.7511C21.5224 24.7511 21.186 24.4147 21.186 24.0007V22.6879H19.8731C19.4614 22.6879 19.125 22.3515 19.125 21.9375C19.125 21.5235 19.4614 21.1871 19.8754 21.1871H21.1882V19.8743C21.1882 19.4603 21.5246 19.1239 21.9386 19.1239C22.3526 19.1239 22.689 19.4603 22.689 19.8743V21.1871H24.0019C24.4159 21.1871 24.7523 21.5235 24.7523 21.9375C24.7523 22.3515 24.4148 22.6879 23.9996 22.6879Z" fill="#FD907E"/>
</g>
<defs>
<clipPath id="clip0">
<rect width="36" height="36" fill="white"/>
</clipPath>
</defs>
</svg>
