<svg width="24" height="24" fill="none" xmlns="http://www.w3.org/2000/svg"><path fill-rule="evenodd" clip-rule="evenodd" d="M4.172 5.172C3 6.343 3 8.229 3 12v7.645c0 .783 0 1.174.103 1.384a1 1 0 001.218.504c.221-.075.498-.352 1.051-.905.449-.449.673-.673.92-.854a4 4 0 011.755-.727C8.35 19 8.667 19 9.302 19H13.5c3.288 0 4.931 0 6.038-.908.202-.166.388-.352.554-.554C21 16.43 21 14.788 21 11.5c0-3.287 0-4.931-.908-6.038a4 4 0 00-.554-.554C18.43 4 16.788 4 13.5 4H11C7.229 4 5.343 4 4.172 5.172zM7.5 13a1.5 1.5 0 100-3 1.5 1.5 0 000 3zm6-1.5a1.5 1.5 0 11-3 0 1.5 1.5 0 013 0zm3 1.5a1.5 1.5 0 100-3 1.5 1.5 0 000 3z" fill="#8DA2CB"/></svg>