<svg width="32" height="32" fill="none" xmlns="http://www.w3.org/2000/svg"><path d="M15 4l-5.994.025c-.777 0-1.505.444-1.873 1.141L4 11l10.397-.025L15 4zM28 10.975L24.845 5.14C24.464 4.443 23.75 4 22.967 4L17 4.025 17.627 11 28 10.975z" fill="#FDD98B"/><path d="M27.99 12l-11.095.037h-1.799L4 12.06v13.892c0 1.133.899 2.05 2.004 2.047l9.259-.02 10.733.02c1.107.002 2.004-.917 2.004-2.049L27.99 12zM25 24.166a.76.76 0 01-.75.767h-6.5a.76.76 0 01-.75-.767v-3.583a.76.76 0 01.75-.768h6.5a.76.76 0 01.75.768v3.583z" fill="#F2B530"/></svg>