<svg width="36" height="36" fill="none" xmlns="http://www.w3.org/2000/svg"><path d="M11.76 10.385h11.85c.972 0 1.76.739 1.76 1.65 0 .913-.788 1.652-1.76 1.652h-.52c.023.147.04.297.04.45v5.135c0 1.658-1.434 3.002-3.203 3.002h-.736v1.288c0 .584-.335.819-.833.912V32h-1.91v-7.563c-.41-.113-.673-.356-.673-.875v-1.288h-.331c-1.769 0-3.203-1.344-3.203-3.002v-5.135c0-.153.017-.303.04-.45h-.52c-.972 0-1.761-.74-1.761-1.651 0-.912.788-1.651 1.76-1.651zM14.398 4c-.69 0-1.249.525-1.249 1.171v4.703h2.498V5.171c0-.646-.559-1.171-1.249-1.171zm5.242 1.171v4.703h2.498V5.171c0-.646-.56-1.171-1.25-1.171s-1.248.525-1.248 1.171z" fill="url(#paint0_linear)"/><path d="M25.37 12.036c0-.912-.788-1.651-1.76-1.651-4.781 1.362-7.216 9.353-7.835 13.177 0 .519.264.762.672.875V32h1.911v-7.526c.498-.093.832-.328.832-.912v-1.288h.737c1.769 0 3.202-1.344 3.202-3.002v-5.135c0-.153-.016-.303-.04-.45h.52c.973 0 1.762-.74 1.762-1.651z" fill="#000" fill-opacity=".25"/><defs><linearGradient id="paint0_linear" x1="25.152" y1="3.781" x2="16.519" y2="31.781" gradientUnits="userSpaceOnUse"><stop stop-color="#4527A0"/><stop offset="1" stop-color="#651FFF"/></linearGradient></defs></svg>