<svg width="36" height="36" fill="none" xmlns="http://www.w3.org/2000/svg"><path d="M12.704 26.769H4.687c-.221 0-.401.198-.401.442v2.018c0 .898.664 1.628 1.48 1.628h5.86c.816 0 1.48-.73 1.48-1.628V27.21c0-.244-.18-.442-.402-.442zM4.687 9.231h11.66c.846 0 1.534-.757 1.534-1.687v-1.96c0-.243-.18-.441-.402-.441H5.766c-.816 0-1.48.73-1.48 1.628V8.79c0 .244.18.442.401.442zM31.312 26.769H16.906c-.222 0-.402.198-.402.442v2.018c0 .898.664 1.628 1.48 1.628h12.25c.816 0 1.48-.73 1.48-1.628V27.21c0-.244-.18-.442-.402-.442z" fill="#2962FF"/><path d="M29.481 17.202c-.737-.85-1.704-1.28-2.872-1.28-1.232 0-2.71-.19-4.106-.463l-.146 1.924c-.035.461-.386.81-.8.81a.772.772 0 01-.067-.003c-.443-.04-.771-.468-.734-.954l.16-2.13c-.29-.072-.569-.147-.834-.223l-2.07 2.278a.766.766 0 01-.569.259.766.766 0 01-.568-.26.948.948 0 010-1.25l1.48-1.627a2.848 2.848 0 01-.5-.272 1.189 1.189 0 01-.246-.253l-1.936.374a.736.736 0 01-.14.014c-.383 0-.722-.302-.79-.731-.077-.481.215-.94.652-1.024l1.65-.319a4.048 4.048 0 01-.028-.311l.003-.762H5.163v.789c0 .039.03 3.887-.29 6.203a28.737 28.737 0 00-.243 3.88c0 1.252.065 2.355.128 3.13h8.113l1.03-1.438 2.3 1.438h14.982c.066-3.9-.481-6.393-1.702-7.799z" fill="#2979FF"/><path d="M26.609 15.921c1.168 0 2.135.431 2.872 1.281 1.22 1.405 1.768 3.898 1.702 7.799H16.2l-2.3-1.438-1.03 1.438H4.758a39.376 39.376 0 01-.128-3.13c7.53.66 21.647.299 17.873-6.412 1.396.273 2.874.462 4.106.462z" fill="#000" fill-opacity=".2"/></svg>