<svg width="36" height="36" fill="none" xmlns="http://www.w3.org/2000/svg"><path d="M9.565 15.216c.324.48.585 1 .776 1.548.523 1.457.68 3.192.72 4.397h13.876c.04-1.205.197-2.94.721-4.398.19-.546.45-1.066.775-1.546a6.33 6.33 0 011.556-1.561 7.18 7.18 0 01.682-.44c-1.593-3.544-5.78-5.93-10.672-5.93-4.636 0-8.725 2.46-10.382 6.105.135.087.265.175.391.265a6.394 6.394 0 011.557 1.56z" fill="#00E676"/><path d="M11.061 21.161c-.04-1.206-.197-2.94-.72-4.397 3.953-3.491 13.153-9.09 18.33-3.548a7.18 7.18 0 00-.682.44 6.33 6.33 0 00-1.556 1.561c-.324.48-.584 1-.775 1.546-.524 1.457-.68 3.193-.721 4.398H11.06z" fill="#000" fill-opacity=".1"/><path d="M32.052 14.713c-.35-.351-.785-.448-1.044-.505a2.498 2.498 0 00-1.084 0c-.454.101-.74.303-1.138.584-.472.33-.882.742-1.213 1.214a5.498 5.498 0 00-.61 1.227c-.57 1.57-.652 3.57-.653 4.622 0 .383-.31.694-.694.694H10.381a.694.694 0 01-.694-.694c0-1.053-.087-3.053-.651-4.622a5.539 5.539 0 00-.61-1.229A4.962 4.962 0 007.21 14.79c-.398-.277-.685-.485-1.14-.585a2.47 2.47 0 00-1.082 0c-.26.058-.694.155-1.046.507-.005.006-.624.648-.497 1.485.138.896.994 1.393 1.537 1.509.198.041.402.037.597-.014.236-.045.56-.107.928.06 1.158.522 1.284 2.507.43 6.834.437 1.282.986 1.38 1.402 1.43h1.346v2.08c0 .384.31.695.694.695h.694c.383 0 .694-.311.694-.694v-2.08h12.464V28.1c0 .383.31.694.694.694h.693c.384 0 .694-.311.694-.694v-2.082h1.346c.416-.047.966-.147 1.402-1.43-.854-4.326-.728-6.313.43-6.834.368-.166.694-.105.929-.059.195.05.4.054.598.013.543-.115 1.4-.613 1.537-1.508.124-.837-.497-1.479-.503-1.486z" fill="#00C853"/></svg>