<svg width="36" height="36" fill="none" xmlns="http://www.w3.org/2000/svg"><path d="M15.74 24.83h4.52v-7.533h-4.52v7.533zM18 18.804a.754.754 0 110 1.507.754.754 0 010-1.507zm0 3.013a.754.754 0 110 1.507.754.754 0 010-1.507zM22.52 8.257h-9.04a5.28 5.28 0 00-5.22 4.52h19.48a5.28 5.28 0 00-5.22-4.52z" fill="#00ACC1"/><path d="M8.206 14.284v11.3a3.772 3.772 0 003.014 3.69v.83a.753.753 0 001.507 0v-.754h10.546v.754a.753.753 0 001.507 0v-.83a3.772 3.772 0 003.014-3.69v-11.3H8.206zm13.56 11.3a.754.754 0 01-.753.753h-6.026a.754.754 0 01-.754-.753v-9.04c0-.416.338-.754.754-.754h6.026c.416 0 .754.338.754.754v9.04z" fill="#00BCD4"/><path d="M11.22 30.104v-.83c1.662-.31 4.197-1.21 6.86-2.917h1.777a2 2 0 002-2v-.982c2.337-2.251 4.493-5.23 5.937-9.091v11.3a3.772 3.772 0 01-3.014 3.69v.83a.753.753 0 01-1.507 0v-.754H12.727v.754a.753.753 0 01-1.507 0z" fill="#000" fill-opacity=".1"/><path d="M21.767 5.896v.854h-7.534v-.854c0-.416.338-.753.754-.753h6.026c.416 0 .754.337.754.753zM6.741 12.777a6.783 6.783 0 00-.041.753v4.254c-.064-.054-1.557-.524-1.557-2.172V13.53c0-.416.337-.753.753-.753h.845zM30.857 13.53v2.082c0 1.628-1.514 2.136-1.557 2.172V13.53c0-.255-.014-.506-.041-.753h.845c.416 0 .753.337.753.753z" fill="#00ACC1"/></svg>