<svg width="36" height="36" fill="none" xmlns="http://www.w3.org/2000/svg"><path d="M20.26 12.007A8.025 8.025 0 0114.053 5.8a.827.827 0 00-1.618 0 8.025 8.025 0 01-6.207 6.207.826.826 0 000 1.617 8.025 8.025 0 016.207 6.207.826.826 0 001.618 0 8.025 8.025 0 016.207-6.207.826.826 0 000-1.617z" fill="#3F51B5"/><path d="M14.053 5.8a8.025 8.025 0 006.207 6.207.827.827 0 010 1.617c-2.678-3.323-9.76-2.623-13.468-1.757-.185.053-.373.1-.564.14.178-.047.366-.094.564-.14A8.025 8.025 0 0012.435 5.8a.826.826 0 011.618 0z" fill="#000" fill-opacity=".1"/><path d="M18.893 25.658a3.78 3.78 0 01-2.924-2.924.826.826 0 00-1.617 0 3.781 3.781 0 01-2.925 2.924.826.826 0 000 1.618 3.781 3.781 0 012.924 2.924.826.826 0 001.618 0 3.781 3.781 0 012.925-2.924.826.826 0 000-1.618z" fill="#1A237E"/><path d="M11.427 27.276c.176.037.347.085.512.145 3.867.998 6.235-.73 6.954-1.763a.826.826 0 010 1.618A3.781 3.781 0 0015.97 30.2a.826.826 0 01-1.618 0 3.782 3.782 0 00-2.412-2.779 11.03 11.03 0 01-.512-.145z" fill="#000" fill-opacity=".1"/><path d="M30.058 18.007a5.11 5.11 0 01-3.952-3.953.826.826 0 00-1.618 0 5.11 5.11 0 01-3.953 3.953.826.826 0 000 1.617 5.11 5.11 0 013.953 3.953.826.826 0 001.618 0 5.11 5.11 0 013.952-3.953.827.827 0 000-1.617z" fill="#283593"/><path d="M26.106 14.054a5.11 5.11 0 003.952 3.953.826.826 0 010 1.617 5.11 5.11 0 00-3.952 3.953.826.826 0 01-1.618 0c3.476-4.11 1.448-8.061 0-9.523a.826.826 0 011.618 0z" fill="#000" fill-opacity=".1"/></svg>