<svg width="32" height="32" fill="none" xmlns="http://www.w3.org/2000/svg"><g clip-path="url(#clip0)"><path d="M5.35 21.84a2.93 2.93 0 01-.846-1.253l-1.677-4.938a2.962 2.962 0 011.836-3.75 2.912 2.912 0 011.941.026 3.465 3.465 0 01-.041-.49c0-1.548.977-2.919 2.426-3.411a3.558 3.558 0 011.974-.097l-.78-2.296c-.146-.44-.22-.9-.22-1.371A4.278 4.278 0 0112.837.221c2.21-.748 4.631.444 5.395 2.662l1.479 4.362 1.317-4.242C21.727.725 24.221-.52 26.352.192a4.298 4.298 0 012.792 5.345l-2.345 7.507h.234a1 1 0 011 1v6.521C28.033 26.871 22.927 32 16.65 32c-5.793 0-10.66-4.427-11.3-10.159zm-.04-8.05a.96.96 0 00-.59 1.217l1.679 4.938a.943.943 0 001.2.595.958.958 0 00.59-1.216l-1.677-4.937a.945.945 0 00-1.201-.596zm4.326-3.873c-.764.259-1.281 1.104-.984 2.042l2.521 7.404a1.573 1.573 0 002.003 1.002c.515-.18.888-.594 1.028-1.088-.027-.025-.059-.044-.084-.07a3.536 3.536 0 01-1.068-2.555c0-.387.077-.752.19-1.101-1.67-4.492-1.414-5.084-2.378-5.56a1.588 1.588 0 00-1.228-.074zm17.597-4.973a2.293 2.293 0 00-1.504-2.85c-1.066-.358-2.413.266-2.79 1.5l-2.232 7.186c-.294.933-1.615.87-1.903.024L16.34 3.531c-.405-1.175-1.688-1.812-2.855-1.416-1.189.413-1.794 1.712-1.406 2.88l1.848 5.44 1.036 3.049a3.541 3.541 0 011.686-.441h8.063l2.521-8.099zM16.65 29.999c5.175 0 9.384-4.232 9.384-9.434v-5.521H16.65a1.604 1.604 0 00-1.11 2.752c.289.3.685.465 1.11.465h4.543a1 1 0 010 2h-.31c-3.035 0-2.54 3.432-2.585 3.566a1 1 0 01-2 0c.056-.527-.274-1.987.808-3.566-.354-.01-.59.031-1.108-.064a3.648 3.648 0 01-2.162 2.058 3.526 3.526 0 01-3.976-1.191 2.919 2.919 0 01-1.614 1.368 2.91 2.91 0 01-.756.144c.928 4.253 4.712 7.423 9.16 7.423z" fill="#fff"/></g><defs><clipPath id="clip0"><path transform="matrix(-1 0 0 1 32 0)" fill="#fff" d="M0 0h32v32H0z"/></clipPath></defs></svg>