<?xml version="1.0" encoding="UTF-8" standalone="no"?>
<svg
   xmlns:dc="http://purl.org/dc/elements/1.1/"
   xmlns:cc="http://creativecommons.org/ns#"
   xmlns:rdf="http://www.w3.org/1999/02/22-rdf-syntax-ns#"
   xmlns:svg="http://www.w3.org/2000/svg"
   xmlns="http://www.w3.org/2000/svg"
   xmlns:sodipodi="http://sodipodi.sourceforge.net/DTD/sodipodi-0.dtd"
   xmlns:inkscape="http://www.inkscape.org/namespaces/inkscape"
   sodipodi:docname="gaijinlogo.svg"
   inkscape:version="1.0 (4035a4fb49, 2020-05-01)"
   id="svg8"
   version="1.1"
   viewBox="0 0 313.64999 102.308"
   height="102.308mm"
   width="313.64999mm">
  <defs
     id="defs2" />
  <sodipodi:namedview
     inkscape:window-maximized="1"
     inkscape:window-y="-9"
     inkscape:window-x="-9"
     inkscape:window-height="1001"
     inkscape:window-width="1920"
     showgrid="false"
     inkscape:document-rotation="0"
     inkscape:current-layer="layer1"
     inkscape:document-units="mm"
     inkscape:cy="282.41857"
     inkscape:cx="686.72181"
     inkscape:zoom="0.62721264"
     inkscape:pageshadow="2"
     inkscape:pageopacity="0.0"
     borderopacity="1.0"
     bordercolor="#666666"
     pagecolor="#ffffff"
     id="base" />
  <metadata
     id="metadata5">
    <rdf:RDF>
      <cc:Work
         rdf:about="">
        <dc:format>image/svg+xml</dc:format>
        <dc:type
           rdf:resource="http://purl.org/dc/dcmitype/StillImage" />
        <dc:title></dc:title>
      </cc:Work>
    </rdf:RDF>
  </metadata>
  <g
     id="layer1"
     inkscape:groupmode="layer"
     inkscape:label="Layer 1">
    <g
       transform="matrix(0.41349691,0,0,0.41349691,60.114812,29.476294)"
       id="g978"
       inkscape:export-xdpi="15.398881"
       inkscape:export-ydpi="15.398881">
      <ellipse
         style="fill:#f07122;fill-opacity:1;stroke:none;stroke-width:2.57943"
         id="path864"
         cx="-21.671246"
         cy="52.424885"
         rx="123.71028"
         ry="123.71029"
         inkscape:export-xdpi="15.398881"
         inkscape:export-ydpi="15.398881" />
      <path
         id="path879"
         d="m 379.68116,86.360064 h 16.80281 c 0,-3.95782 1.30527,-10.678928 -0.46056,-14.268612 -1.40379,-2.85188 -13.66755,-2.931321 -15.55711,-0.546099 -2.32948,2.941252 -0.78514,11.186837 -0.78514,14.814711 z"
         style="fill:#1c214c;stroke:none;stroke-width:0.763762" />
      <path
         d="m 494.56638,32.719416 c -1.91888,0.01934 -3.82301,0.19866 -5.66707,0.531042 -21.06538,3.798196 -28.58604,30.560544 -15.02466,46.204709 6.80667,7.852251 18.15152,9.854153 28.00865,8.077714 20.59641,-3.714257 27.28903,-30.056535 14.871,-45.440944 -5.2729,-6.532011 -13.87282,-9.456538 -22.18792,-9.372521 z m 0.93083,14.715885 c 13.25127,0.34293 16.65941,22.424095 2.56726,25.639768 -16.38731,3.738546 -21.32504,-22.398661 -5.34633,-25.407126 0.96862,-0.182379 1.89567,-0.255556 2.77907,-0.232636 z"
         style="fill:#1c214c;stroke:none;stroke-width:0.763762"
         id="path877" />
      <path
         d="m 193.2468,32.109244 c -23.68627,-0.460319 -39.9534,44.655719 -9.0891,54.738923 3.49116,1.141064 7.79345,1.943167 11.45645,1.455887 5.01564,-0.666765 9.14074,-2.51958 12.98399,-5.76252 v 3.818818 h 16.03903 V 34.424439 h -16.03903 v 4.58258 C 203.39793,34.264278 198.16282,32.20479 193.2468,32.109244 Z m 2.17046,15.237997 c 13.75591,-0.28526 19.26046,21.435478 4.77948,25.590579 -16.96776,4.869757 -24.39766,-21.384763 -7.63763,-25.22955 0.98692,-0.226372 1.94108,-0.342012 2.85815,-0.361029 z"
         style="fill:#1c214c;stroke:none;stroke-width:0.763762"
         id="path875" />
      <path
         d="m 128.40298,32.898363 c -4.73534,-6.87e-4 -8.81763,1.001753 -12.98398,3.292279 -13.45674,7.398577 -17.170291,27.531763 -9.06373,40.240787 8.02868,12.588347 25.72296,15.620488 36.55921,5.346343 -0.17262,8.09971 -5.37079,15.953872 -14.5115,14.336985 -3.24218,-0.573664 -5.26692,-3.397296 -8.4014,-4.166407 -5.11416,-1.254862 -11.54505,-0.241643 -16.80279,-0.241643 5.09508,21.451063 38.98874,24.818723 51.3243,7.62572 4.58945,-6.396518 4.43042,-15.3741 4.43042,-22.900987 V 34.424439 h -16.03903 v 3.818818 c -4.39697,-3.710363 -8.75578,-5.344894 -14.5115,-5.344894 z m 2.76863,14.568253 c 13.20387,0.540822 16.6849,22.823237 2.57771,25.647175 -17.04108,3.410969 -22.04832,-22.518876 -5.34634,-25.453255 0.96435,-0.169389 1.8884,-0.22998 2.76863,-0.193926 z"
         style="fill:#1c214c;stroke:none;stroke-width:0.763762"
         id="path873" />
      <path
         id="path871"
         d="m 292.61213,34.424199 v 51.935894 h 15.27528 V 34.424199 h -15.27528"
         style="fill:#1c214c;stroke:none;stroke-width:0.763762" />
      <path
         sodipodi:nodetypes="csccccc"
         id="path869"
         d="m 265.11665,34.424199 v 35.992465 c 0,13.118353 1.45623,20.763226 -7.63763,23.581053 0,2.85266 0.15238,8.543003 0.15238,10.992853 3.69929,0 20.04069,-1.98617 21.84402,-8.716289 2.00374,-6.890889 1.72658,-40.814762 1.73879,-61.785821 -2.48336,0 -12.71486,-0.06426 -16.09756,-0.06426"
         style="fill:#1c214c;stroke:none;stroke-width:0.763762" />
      <path
         id="path867"
         d="M 236.09365,34.424199 V 86.360093 H 251.3689 V 34.424199 h -15.27525"
         style="fill:#1c214c;stroke:none;stroke-width:0.763762" />
      <path
         id="path865"
         d="m 546.18157,39.00678 v -4.582581 h -14.51153 v 51.935894 h 16.03903 c 0,-9.787613 -1.89108,-21.776394 0.30094,-31.314281 0.96233,-4.186964 4.99347,-8.431198 9.62495,-7.294718 4.01203,0.984497 5.86186,5.041618 6.08032,8.822254 0.56899,9.860934 0.0329,19.908231 0.0329,29.786745 h 16.03903 c 0,-9.849474 -1.37093,-20.823997 0.16339,-30.550528 0.6301,-3.99676 3.87154,-8.234904 8.23796,-8.234904 5.13324,0 7.20154,4.700212 7.84385,8.998687 1.44885,9.701301 0.55756,19.988422 0.55756,29.786745 h 15.27525 c 0,-12.182794 3.88909,-32.564554 -1.8651,-43.534487 -6.33161,-12.070531 -26.38499,-14.216709 -33.26801,-1.527536 h -1.52754 c -5.619,-12.014011 -20.82246,-9.770062 -29.02299,-2.29129"
         style="fill:#1c214c;stroke:none;stroke-width:0.763762" />
      <path
         sodipodi:nodetypes="ccccccscc"
         id="path860"
         d="m 460.64004,66.502263 c -4.29463,0 -10.40777,0.162252 -14.44351,0.162252 -1.96635,3.405818 -8.98798,9.086131 -16.87002,5.773712 -11.31134,-4.755203 -9.50656,-23.374971 3.0543,-24.883398 6.85785,-0.823363 12.24115,1.899793 13.81572,7.776159 4.01778,0 10.16262,-0.02153 14.44351,-0.02153 -2.8916,-32.909048 -54.98484,-27.163413 -54.98484,5.082684 0,11.802418 6.93039,22.534057 18.32423,26.332273 14.82233,4.940786 35.16212,-3.167336 36.66061,-20.222156"
         style="fill:#1c214c;stroke:none;stroke-width:0.763762" />
      <path
         id="path858"
         d="m 334.61916,39.00678 -0.76378,-4.582581 h -14.51149 v 51.935894 h 16.03903 c 0,-10.092358 -1.41144,-21.348706 0.16338,-31.314281 0.60796,-3.847088 3.46825,-7.058704 7.47419,-7.440581 4.46113,-0.425408 7.90801,3.375839 8.79627,7.440581 2.11258,9.671539 0.36889,21.422777 0.36889,31.314281 h 15.27527 c 0,-12.990859 3.57901,-32.33925 -1.92315,-44.29749 -5.35017,-11.626764 -23.2421,-12.244655 -30.91866,-3.055823"
         style="fill:#1c214c;stroke:none;stroke-width:0.763762" />
      <path
         id="path852"
         d="m 292.61216,16.857631 v 12.220234 h 15.27528 V 16.857631 h -15.27528"
         style="fill:#1c214c;stroke:none;stroke-width:0.763762" />
      <path
         id="path848"
         d="m 236.09368,16.857631 v 12.220234 h 15.27525 V 16.857631 h -15.27525"
         style="fill:#1c214c;stroke:none;stroke-width:0.763762" />
      <path
         id="path846"
         d="m 61.955652,42.825606 c 0.762253,-3.927278 1.316724,-8.57325 5.360855,-10.544525 6.760829,-3.294868 10.212298,6.310221 8.409807,11.308279 -4.824685,13.378075 -22.80064,17.150311 -29.02455,29.052781 -1.907104,3.647734 -0.785143,9.69599 -0.785143,13.717952 H 94.79747 V 71.848597 L 71.120813,71.084843 C 79.427509,64.756292 90.246989,56.231942 93.442556,45.88065 99.525942,26.174775 82.125126,12.415602 63.483189,16.488744 c -8.411338,1.837622 -15.35088,8.844366 -17.384016,17.171701 -0.545349,2.23324 -1.920873,6.634047 0.277986,8.379989 3.044335,2.417322 11.809288,0.785172 15.578464,0.785172"
         style="fill:#1c214c;stroke:none;stroke-width:0.763762" />
      <path
         sodipodi:nodetypes="cscccscssscscccccccccccccccccccc"
         id="path847-4"
         d="m -39.049973,21.078955 c -5.784586,-1.57824 -11.069109,-2.20371 -16.404164,1.24328 -1.792023,1.15782 -3.267872,3.74703 -5.072328,4.57914 -1.290374,0.59532 -5.698596,-1.57903 -7.363089,-1.778 -5.215468,-0.62388 -10.895542,2.02327 -14.164468,6.00975 -6.544204,7.98036 -3.874559,20.386414 -3.874559,29.897924 0,11.63716 -1.398322,23.87811 0.123825,35.45416 1.613165,12.266871 9.870281,26.855201 20.561035,33.177421 8.995037,5.31945 19.631552,4.12882 29.633331,4.12882 h 17.727084 c 4.385205,0 8.7217249,0.24951 12.9645839,-1.06494 10.3796,-3.21628 16.7833111,-14.54124 23.3928701,-22.48297 3.73459,-4.48733 7.84913,-8.82094 9.56415,-14.552081 1.7063,-5.7023 1.33774,-11.71205 -0.94562,-17.19792 -1.01256,-2.43337 -3.75523,-5.29113 -3.90683,-7.9375 -0.18283,-3.19034 1.00092,-6.88736 1.45706,-10.05416 1.06865,-7.4168 2.21059,-14.820644 3.35888,-22.225004 2.35082,-15.15666 4.65111,-30.32734 6.83869,-45.50833 1.04907,-7.27975 3.13134,-14.48118 -1.83912,-20.90208 -6.04732,-7.81236 -18.66927,-8.12694 -25.057098,-0.5252 -3.1771221,3.78036 -3.9735121,8.85058 -5.2300211,13.48978 -1.553369,5.73511 -3.174471,11.45328 -4.691853,17.19791 -0.642675,2.43232 -1.677196,4.89188 -1.882775,7.40834 h -0.529169 c -0.133879,-2.93079 -1.401233,-5.90682 -2.147358,-8.73125 -1.6084,-6.08965 -3.197225,-12.1875 -4.8842059,-18.25625 -1.143265,-4.11348 -1.742017,-8.58785 -4.658784,-11.90625 -6.983942,-7.94517 -20.479015,-7.48877 -26.164382,1.85208 -3.30491,5.42978 -2.155296,11.02228 -1.378214,16.93334 1.37451,10.45183 2.103702,21.49924 4.572529,31.74999 m -36.247914,53.710424 v 0"
         style="fill:#ffffff;fill-opacity:1;stroke:none;stroke-width:0.264583"
         inkscape:export-xdpi="15.398881"
         inkscape:export-ydpi="15.398881" />
      <path
         style="fill:#1c214c;stroke:none;stroke-width:0.264583"
         d="m -39.049972,21.078965 c -5.784586,-1.578239 -11.069108,-2.203714 -16.404166,1.243277 -1.792023,1.157817 -3.267869,3.747029 -5.072327,4.579144 -1.290373,0.595312 -5.698596,-1.579033 -7.363089,-1.778 -5.215467,-0.623887 -10.895542,2.023269 -14.164468,6.009746 -6.544204,7.980362 -3.874559,20.386409 -3.874559,29.897915 0,11.637168 -1.398322,23.878118 0.123825,35.454168 1.613165,12.266865 9.870281,26.855195 20.561035,33.177415 8.995039,5.31945 19.631553,4.12882 29.633332,4.12882 h 17.727082 c 4.385204,0 8.7217246,0.24951 12.9645826,-1.06494 10.379603,-3.21628 16.7833134,-14.54124 23.3928734,-22.48297 3.73459,-4.48733 7.84913,-8.82094 9.56415,-14.552075 1.7063,-5.7023 1.33774,-11.71205 -0.94562,-17.197919 -1.01256,-2.433373 -3.75523,-5.291137 -3.90683,-7.9375 -0.18283,-3.190345 1.00092,-6.887368 1.45706,-10.054166 1.06865,-7.4168 2.21059,-14.820635 3.35888,-22.224999 2.35082,-15.156655 4.65111,-30.327334 6.83869,-45.508331 1.04907,-7.279745 3.13134,-14.481174 -1.83912,-20.902082 -6.04732,-7.812352 -18.66927,-8.126941 -25.0571004,-0.525198 -3.17712,3.780366 -3.97351,8.850577 -5.23002,13.48978 -1.55337,5.735109 -3.17446999,11.453283 -4.691855,17.197916 -0.642673,2.432315 -1.677194,4.891881 -1.882775,7.408333 h -0.529167 C -4.5234374,6.50651 -5.7907914,3.530477 -6.5369164,0.70604997 -8.1453184,-5.3836 -9.7341414,-11.481452 -11.421124,-17.550199 c -1.143264,-4.113477 -1.742016,-8.587846 -4.658783,-11.90625 -6.983941,-7.945172 -20.479014,-7.488766 -26.16438,1.852083 -3.30491,5.429779 -2.155296,11.022277 -1.378214,16.933333 1.37451,10.45183497 2.103702,21.499247 4.572529,31.749998 m 53.710411,34.395832 c -1.43695,-0.878946 -2.07221,-2.877608 -3.02657,-4.233333 -1.7928104,-2.546615 -3.9436104,-4.770967 -6.4984304,-6.55955 -8.813003,-6.169024 -20.5234606,-4.288366 -30.6916616,-4.288366 -3.303323,-17.729729 -5.14985,-35.849982 -7.638521,-53.710414 -0.341047,-2.447661 -1.214172,-5.266531 -0.341312,-7.672917 1.291431,-3.560762 6.011068,-4.519612 8.745802,-2.029618 2.785004,2.535766 3.289829,9.316508 4.230422,12.877535 2.866761,10.85294297 5.677694,21.749807 8.761942,32.543748 1.160197,4.060031 1.9838446,14.330626 8.2020816,13.402997 5.539057,-0.826293 6.374607,-10.059987 7.506227,-14.46133 2.72918,-10.613231 5.59859,-21.21984703 8.6333604,-31.749999 0.9898,-3.434556 1.37398,-9.439539 4.24391,-11.803062 2.87893,-2.370666 7.58243,-1.081087 8.64024,2.542646 0.99007,3.391958 -0.6985,8.462433 -1.26365,11.906249 -2.08069,12.678833 -3.7256,25.425664 -5.82084,38.099999 -1.34646,8.14361 -3.51261,16.88412 -3.683,25.135415 m -61.647911,9.789583 c -5.809721,-1.684338 -5.55625,-6.287823 -5.55625,-11.377083 V 41.451881 c 0,-3.377406 -0.575998,-7.29906 2.385219,-9.686395 6.684962,-5.389033 12.349162,4.826264 9.890654,10.696045 -0.872596,2.083064 -4.202377,3.8354 -5.566304,5.869516 -3.860006,5.757069 -2.212975,10.775421 -1.153319,16.933333 M -70.270804,35.981885 c 2.971006,-0.499004 6.075362,1.172898 6.934993,4.147079 1.207029,4.176977 0.208756,9.942777 0.208756,14.2875 0,2.131748 0.443971,4.852722 -0.299773,6.879166 -0.770466,2.09841 -2.80961,3.576902 -4.991893,3.888846 -2.765689,0.395287 -5.503333,-1.28614 -6.466681,-3.888846 -1.539875,-4.160837 -0.412485,-10.406591 -0.412485,-14.816666 0,-2.01295 -0.355865,-4.419864 0.292364,-6.35 0.726811,-2.164291 2.460625,-3.765285 4.734719,-4.147079 m -5.027083,38.807494 c 4.012935,0.928423 7.618412,1.585913 11.641666,0.12065 1.79705,-0.654579 4.00976,-2.953808 5.820833,-3.079749 1.165754,-0.08096 2.483379,1.337468 3.439583,1.896004 1.78091,1.040341 3.787246,1.687777 5.820833,2.005277 4.377266,0.683683 7.573962,-1.789377 11.641666,-2.000515 -1.374246,2.946665 -4.393671,5.364956 -6.135423,8.202079 -3.832753,6.24364 -6.303433,13.0183 -8.053122,20.108335 -1.168665,4.7363 3.128962,11.00613 8.092545,6.7892 2.833159,-2.40717 3.076575,-7.8904 4.176448,-11.287115 2.667529,-8.23701 9.312275,-20.265759 18.852885,-21.695832 0,7.951262 1.261004,15.368062 6.472766,21.695832 1.143,1.38774 2.524389,2.783945 4.3751496,3.086885 3.090068,0.50615 6.217708,-2.339705 6.028795,-5.468135 -0.192881,-3.19749 -3.658658,-5.77956 -4.850606,-8.73125 -1.341702,-3.32211 -1.787789,-7.294826 -1.367102,-10.847916 0.388673,-3.283214 2.077773,-7.047706 -0.632618,-9.761801 -1.9772316,-1.979877 -4.5521566,-1.615281 -7.1159686,-1.615281 -4.890029,0 -10.854795,0.922866 -15.610416,-0.238125 -4.20317,-1.026055 -6.568281,-5.652029 -4.448175,-9.551458 3.044032,-5.598583 13.64271,-3.439583 19.000258,-3.439583 5.122068,0 11.1828776,-0.926836 15.8749986,1.530614 3.93859,2.062692 6.01133,5.780616 8.00497,9.581885 2.71991,5.185569 5.7218804,10.258689 8.6240904,15.345833 2.41194,4.228302 4.76356,8.456352 3.7428,13.493752 -1.11549,5.50624 -5.45359,9.585585 -8.9294304,13.758325 -4.22354,5.07021 -8.55555999,12.59946 -14.352846,15.90701 -3.687498,2.10397 -7.8234646,1.82007 -11.9062496,1.82007 h -17.991666 c -10.464005,0 -20.748359,0.59584 -29.368748,-6.47276 -12.8397,-10.52883 -10.847916,-26.309105 -10.847916,-41.152231"
         id="path847"
         sodipodi:nodetypes="cscccscssscsccccccccccccccccccccccccscccccccccccssccccccscccscccccccccccccscccccsccsccccccsscc"
         inkscape:export-xdpi="15.398881"
         inkscape:export-ydpi="15.398881" />
      <path
         style="fill:#1c214c;stroke:none;stroke-width:0.763762"
         d="m 265.40348,16.857631 v 12.220234 h 15.27528 V 16.857631 h -15.27528"
         id="path852-5" />
    </g>
  </g>
</svg>
