<svg width="22" height="22" viewBox="0 0 22 22" fill="none" xmlns="http://www.w3.org/2000/svg">
<path d="M22 11C22 17.0751 17.0751 22 11 22C7.79743 22 4.91453 20.6315 2.90445 18.4472C2.37645 17.8739 1.90906 17.244 1.51127 16.5682C0.550898 14.9349 0 13.0316 0 11C0 4.92486 4.92486 0 11 0C13.0321 0 14.9353 0.550898 16.5682 1.51171C17.244 1.90906 17.8734 2.37645 18.4468 2.9049C20.6311 4.91408 22 7.79743 22 11Z" fill="#F0CD00"/>
<path d="M22 10.9999C22 16.9381 17.2951 21.7772 11.4095 21.9923C5.52378 21.7772 0.818924 16.9381 0.818924 10.9999C0.818924 5.06173 5.52378 0.22263 11.4095 0.00756836C17.2951 0.22263 22 5.06173 22 10.9999Z" fill="#FFDE50"/>
<path d="M18.4468 2.9049L2.90446 18.4472C2.37646 17.8739 1.90907 17.244 1.51128 16.5682L16.5683 1.51172C17.244 1.90907 17.8734 2.37645 18.4468 2.9049Z" fill="#FFEA94"/>
<path d="M21.2412 6.97858L6.97806 21.2418C5.9683 20.8449 5.03128 20.303 4.19304 19.6416L19.6415 4.19312C20.3029 5.03136 20.8448 5.96838 21.2412 6.97858Z" fill="#FFEA94"/>
<path d="M19.5476 11.0001C19.5476 15.7206 15.7205 19.5477 10.9999 19.5477C9.35578 19.5477 7.82027 19.0835 6.51688 18.2789C5.94892 17.9287 5.42541 17.5134 4.95578 17.0438C4.61052 16.699 4.29443 16.3241 4.01203 15.924C3.62321 15.3731 3.2977 14.7742 3.04672 14.138C2.67496 13.1974 2.46574 12.1746 2.45317 11.1051C2.45227 11.0701 2.45227 11.0351 2.45227 11.0001C2.45227 6.27949 6.27892 2.45239 10.9999 2.45239C11.035 2.45239 11.0704 2.45239 11.1055 2.45329C12.1749 2.46586 13.1973 2.67554 14.1379 3.04684C14.7741 3.29827 15.373 3.62333 15.9239 4.01215C16.3239 4.295 16.6984 4.61064 17.0437 4.9559C17.5133 5.42509 17.9286 5.94905 18.2788 6.517C19.0834 7.82039 19.5476 9.3559 19.5476 11.0001Z" fill="#FAA300"/>
<path d="M17.0437 4.9559L4.95578 17.0438C4.61052 16.699 4.29443 16.3241 4.01203 15.924C3.62321 15.3731 3.2977 14.7742 3.04672 14.138C2.67496 13.1974 2.46574 12.1746 2.45317 11.1051C2.45227 11.0701 2.45227 11.0351 2.45227 11.0001C2.45227 6.27949 6.27892 2.45239 10.9999 2.45239C11.035 2.45239 11.0704 2.45239 11.1055 2.45329C12.1749 2.46586 13.1973 2.67554 14.1379 3.04684C14.7741 3.29827 15.373 3.62333 15.9239 4.01215C16.3239 4.295 16.6984 4.61064 17.0437 4.9559Z" fill="#FFBD00"/>
<path d="M19.5475 11.0001C19.5475 15.7206 15.7204 19.5477 10.9998 19.5477C10.8377 19.5477 10.677 19.5432 10.5172 19.5343C15.0132 19.2842 18.5817 15.5586 18.5817 11.0001C18.5817 6.44158 15.0132 2.71594 10.5172 2.46586C10.677 2.45688 10.8377 2.45239 10.9998 2.45239C15.7204 2.45239 19.5475 6.27949 19.5475 11.0001Z" fill="#F68E00"/>
<path d="M14.1521 5.04769C13.7561 4.74894 13.1931 4.82778 12.8944 5.2236L9.8773 9.22212L6.86015 5.2236C6.56149 4.82774 5.99838 4.74894 5.60247 5.04769C5.20661 5.3464 5.12786 5.90946 5.42656 6.30533L8.42925 10.2847H6.72501C6.22907 10.2847 5.82705 10.6867 5.82705 11.1826C5.82705 11.6786 6.22907 12.0806 6.72501 12.0806H8.97934V13.4282H6.72501C6.22907 13.4282 5.82705 13.8302 5.82705 14.3262C5.82705 14.8221 6.22907 15.2241 6.72501 15.2241H8.97934V17.2197C8.97934 17.7156 9.38135 18.1177 9.8773 18.1177C10.3732 18.1177 10.7753 17.7156 10.7753 17.2197V15.2241H13.0295C13.5255 15.2241 13.9275 14.8221 13.9275 14.3262C13.9275 13.8302 13.5255 13.4282 13.0295 13.4282H10.7753V12.0806H13.0295C13.5255 12.0806 13.9275 11.6786 13.9275 11.1826C13.9275 10.6867 13.5255 10.2847 13.0295 10.2847H11.3253L14.328 6.30533C14.6267 5.90946 14.5479 5.3464 14.1521 5.04769Z" fill="#F68E00"/>
<path d="M15.2747 5.04769C14.8787 4.74894 14.3157 4.82778 14.017 5.2236L10.9999 9.22212L7.98273 5.2236C7.68407 4.82774 7.12096 4.74894 6.72505 5.04769C6.32918 5.3464 6.25043 5.90946 6.54914 6.30533L9.55183 10.2847H7.84759C7.35164 10.2847 6.94963 10.6867 6.94963 11.1826C6.94963 11.6786 7.35164 12.0806 7.84759 12.0806H10.1019V13.4282H7.84759C7.35164 13.4282 6.94963 13.8302 6.94963 14.3262C6.94963 14.8221 7.35164 15.2241 7.84759 15.2241H10.1019V17.2197C10.1019 17.7156 10.5039 18.1177 10.9999 18.1177C11.4958 18.1177 11.8978 17.7156 11.8978 17.2197V15.2241H14.1521C14.6481 15.2241 15.0501 14.8221 15.0501 14.3262C15.0501 13.8302 14.6481 13.4282 14.1521 13.4282H11.8978V12.0806H14.1521C14.6481 12.0806 15.0501 11.6786 15.0501 11.1826C15.0501 10.6867 14.6481 10.2847 14.1521 10.2847H12.4479L15.4506 6.30533C15.7493 5.90946 15.6705 5.3464 15.2747 5.04769Z" fill="#FFEA94"/>
</svg>
