<svg width="32" height="32" fill="none" xmlns="http://www.w3.org/2000/svg"><path d="M25.35 11.37L24 12.67l-2.81 2.71c-.25.24-.57.371-.91.371-.07 0-.14-.01-.22-.02-.41-.07-.75-.319-.941-.679-.4-.76-.31-1.66.22-2.34l2.04-2.63c-.43-.55-.66-1.219-.66-1.93 0-.05 0-.1.01-.15.03-.8.371-1.55.96-2.11.2-.2.51-.191.71.01.19.2.18.51-.02.71-.39.379-.619.87-.649 1.39-.01.05-.01.1-.01.15 0 .58.23 1.13.66 1.55.19.169.21.46.05.66l-2.3 2.959c-.29.37-.34.86-.12 1.27.06.11.17.14.21.15.05.011.17.02.27-.079l3.51-3.38.65-.63a.502.502 0 01.7.718z" fill="#F7A47B"/><path d="M23.9 16a.498.498 0 01-.357-.849l1.88-1.92a5.468 5.468 0 001.578-3.85V5h-7v.88a.502.502 0 01-.243.429 2.627 2.627 0 00-1.257 2.2c-.006.277-.231.47-.51.491a.502.502 0 01-.49-.51 3.65 3.65 0 011.5-2.88V4.5A.5.5 0 0119.5 4h8a.5.5 0 01.5.5v4.879a6.46 6.46 0 01-1.863 4.551l-1.88 1.92a.505.505 0 01-.356.15zM12.66 19.29l-2.04 2.629c.43.55.66 1.22.66 1.93 0 .05 0 .09-.01.14-.03.81-.36 1.55-.96 2.12-.101.1-.221.139-.35.139-.13 0-.26-.05-.36-.15-.19-.2-.18-.51.02-.71.4-.379.619-.87.649-1.399.01-.05.01-.09.01-.14 0-.58-.23-1.129-.66-1.549a.48.48 0 01-.05-.66l2.3-2.96c.29-.37.34-.859.12-1.27a.32.32 0 00-.21-.15.297.297 0 00-.27.08L8 20.719l-.65.63c-.199.19-.518.19-.709-.009-.19-.2-.19-.52.01-.71L8 19.33l2.81-2.71c.3-.29.71-.42 1.13-.35.41.07.75.32.94.68.4.76.31 1.66-.22 2.34z" fill="#F7A47B"/><path d="M12.5 28h-8a.5.5 0 01-.5-.5v-4.879a6.46 6.46 0 011.863-4.551l1.88-1.919a.498.498 0 11.714.699l-1.88 1.92a5.468 5.468 0 00-1.578 3.851v4.38h7v-.88c0-.176.093-.34.243-.43a2.627 2.627 0 001.257-2.2.504.504 0 01.51-.49.502.502 0 01.491.51 3.65 3.65 0 01-1.5 2.88v1.111a.499.499 0 01-.5.498z" fill="#F7A47B"/><path d="M20.49 14.66c-.1.1-.22.09-.27.08a.32.32 0 01-.21-.15c-.22-.41-.17-.9.12-1.27l2.3-2.96c.16-.2.139-.49-.05-.66-.43-.42-.66-.97-.66-1.55 0-.05 0-.1.01-.15H8.5c-.281 0-.5.22-.5.5v12.22l3.51-3.379c.1-.1.22-.09.27-.08.04.011.15.041.21.15.22.41.17.9-.12 1.271l-2.3 2.96c-.16.2-.139.49.05.66.43.42.66.97.66 1.55 0 .049 0 .09-.01.139h1L23.5 24c.131 0 .26-.05.35-.15.1-.09.15-.22.15-.35V11.28l-3.51 3.38z" fill="#EF7132"/></svg>