<svg width="16" height="16" fill="none" xmlns="http://www.w3.org/2000/svg"><path fill-rule="evenodd" clip-rule="evenodd" d="M5.75 1a.75.75 0 00-1.5 0v1H4a3 3 0 00-3 3v7a3 3 0 003 3h8a3 3 0 003-3V5a3 3 0 00-3-3h-.25V1a.75.75 0 00-1.5 0v1h-4.5V1zM2.5 6h11v6a1.5 1.5 0 01-1.5 1.5H4A1.5 1.5 0 012.5 12V6zm5.25 1.5a.75.75 0 000 1.5h3.5a.75.75 0 000-1.5h-3.5zM7 11.25a.75.75 0 01.75-.75h3.5a.75.75 0 010 1.5h-3.5a.75.75 0 01-.75-.75zm-.9-3a1.1 1.1 0 11-2.2 0 1.1 1.1 0 012.2 0zM5 12.35a1.1 1.1 0 100-2.2 1.1 1.1 0 000 2.2z" fill="#1B479E"/></svg>