<svg width="28" height="28" fill="none" xmlns="http://www.w3.org/2000/svg"><g clip-path="url(#clip0)"><path d="M23.9 16.858l-7.555-7.554-2.518 2.518a2.773 2.773 0 01-3.918 0 2.773 2.773 0 010-3.917l3.784-3.784a5.617 5.617 0 00-3.645.005l-2.175-2.15a2.374 2.374 0 00-3.358 0L1.158 5.334c-.928.927-.85 2.483.078 3.41l2.29 2.29c-.075.566-.06 1.144.108 1.695a2.76 2.76 0 012.358.772c.549.548.815 1.27.807 1.991a2.759 2.759 0 012.798 2.798 2.76 2.76 0 011.992.807l5.036 5.036a1.187 1.187 0 001.679-1.678l-3.078-3.078a.791.791 0 011.12-1.12c.66.662-.787-.785 3.077 3.078a1.187 1.187 0 001.679-1.679l-3.078-3.077a.792.792 0 011.12-1.12l3.077 3.078a1.187 1.187 0 001.679-1.679z" fill="#1B479E"/><path d="M4.873 14.62a1.187 1.187 0 00-1.679 0l-1.679 1.679a1.187 1.187 0 001.68 1.678L4.872 16.3a1.187 1.187 0 000-1.68zM7.671 17.418a1.187 1.187 0 00-1.679 0l-1.679 1.679a1.187 1.187 0 001.68 1.679l1.678-1.68a1.187 1.187 0 000-1.678zM10.469 20.216a1.187 1.187 0 00-1.679 0l-1.679 1.679a1.187 1.187 0 101.68 1.679l1.678-1.68a1.187 1.187 0 000-1.678zM13.267 23.014a1.187 1.187 0 00-1.679 0L9.91 24.693a1.187 1.187 0 101.678 1.679l1.68-1.68a1.187 1.187 0 000-1.678zM26.805 5.528l-3.358-3.357a2.374 2.374 0 00-3.358 0l-2.376 2.407a3.152 3.152 0 00-3.047.808l-.408.408-.014.014-.01.01-.001.002-3.204 3.204a1.187 1.187 0 001.679 1.679l2.518-2.519a1.583 1.583 0 012.238 0l6.156 6.156a3.152 3.152 0 00.809-3.047l2.376-2.407a2.374 2.374 0 000-3.358z" fill="#0D3074"/></g><defs><clipPath id="clip0"><path fill="#fff" d="M.5.5h27v27H.5z"/></clipPath></defs></svg>