<svg width="36" height="36" viewBox="0 0 36 36" fill="none" xmlns="http://www.w3.org/2000/svg">
<path d="M29.25 36H6.75C3.02175 36 0 32.9782 0 29.25V6.75C0 3.02175 3.02175 0 6.75 0H29.25C32.9782 0 36 3.02175 36 6.75V29.25C36 32.9782 32.9782 36 29.25 36Z" fill="#FFF9DD"/>
<path d="M25.1246 12.7654V15.1875C25.1246 16.5296 24.03 17.6254 22.6867 17.6254H16.4992V18.945C16.4992 20.0846 17.4217 21.0071 18.5614 21.0071H19.4985V22.6946C19.4985 22.9196 19.6335 23.1221 19.836 23.2121C19.9114 23.2425 19.9856 23.2571 20.061 23.2571C20.2039 23.2571 20.3389 23.2043 20.4435 23.1075L22.716 21.0071H24.9356C26.0752 21.0071 26.9977 20.0846 26.9977 18.945V14.8196C27 13.7396 26.1754 12.8621 25.1246 12.7654Z" fill="#FAB151"/>
<path d="M13.1254 22.1255C14.368 22.1255 15.3754 21.1181 15.3754 19.8755C15.3754 18.6328 14.368 17.6255 13.1254 17.6255C11.8827 17.6255 10.8754 18.6328 10.8754 19.8755C10.8754 21.1181 11.8827 22.1255 13.1254 22.1255Z" fill="#FF9100"/>
<path d="M15.1875 23.2505H11.0621C9.92475 23.2505 9 24.1752 9 25.3126V26.4376C9 26.7481 9.252 27.0001 9.5625 27.0001H16.6871C16.9976 27.0001 17.2496 26.7481 17.2496 26.4376V25.3126C17.2496 24.1752 16.3249 23.2505 15.1875 23.2505Z" fill="#FF9100"/>
<path d="M23.9996 11.2499V15.1874C23.9996 15.9074 23.4068 16.5002 22.6868 16.5002H14.8118C14.0929 16.5002 13.5 15.9074 13.5 15.1874V11.2499C13.5 11.1824 13.5079 11.1149 13.5225 11.0474L18.3679 13.9127C18.6007 14.0477 18.9 14.0477 19.1329 13.9127L23.9783 11.0474C23.9929 11.1149 23.9996 11.1824 23.9996 11.2499Z" fill="#FAB151"/>
<path d="M23.9771 10.1104L19.1317 12.9757C18.8989 13.1107 18.5996 13.1107 18.3667 12.9757L13.5225 10.1104C13.6125 9.48038 14.1604 9 14.8129 9H22.6879C23.3404 9 23.8871 9.48038 23.9771 10.1104Z" fill="#FAB151"/>
</svg>
