<svg width="24" height="24" fill="none" xmlns="http://www.w3.org/2000/svg"><g clip-path="url(#clip0)"><path d="M23.74 8.107L21.431.492A.692.692 0 0020.769 0H3.231c-.305 0-.574.2-.663.492L.261 8.107a.692.692 0 00-.03.2 3.465 3.465 0 002.178 3.214l.056.023a3.62 3.62 0 00.324.105l.056.015a3.328 3.328 0 00.314.064l.028.004a3.663 3.663 0 00.314.032l.033.001a3.446 3.446 0 002.928-1.383 3.491 3.491 0 001.657 1.204 3.447 3.447 0 002.224 0 3.442 3.442 0 00.962-.509 3.49 3.49 0 00.695-.695 3.494 3.494 0 001.657 1.204 3.447 3.447 0 002.224 0 3.438 3.438 0 00.963-.509 3.49 3.49 0 00.694-.695 3.49 3.49 0 001.657 1.204 3.447 3.447 0 001.271.18l.033-.002.15-.012a3.422 3.422 0 00.164-.02l.029-.004a3.424 3.424 0 00.313-.064l.056-.015a3.417 3.417 0 00.545-.199 3.466 3.466 0 002.013-3.142.683.683 0 00-.03-.201zM10.385 17.308H6.23V24h4.154v-6.692zM17.77 14.539h-3.231v2.307h3.23V14.54z" fill="#8DA2CB"/><path d="M20.308 13.154a4.857 4.857 0 01-2.77-.871 4.824 4.824 0 01-2.769.87h3.693c.382 0 .692.31.692.693v3.692c0 .383-.31.693-.692.693h-4.616a.692.692 0 01-.692-.693v-3.692c0-.382.31-.692.692-.692h.923A4.857 4.857 0 0112 12.283a4.816 4.816 0 01-2.77.87 4.857 4.857 0 01-2.768-.87 4.816 4.816 0 01-2.77.87c-.566 0-1.11-.097-1.615-.276v10.43c0 .383.31.693.692.693h2.077v-7.385c0-.382.31-.692.692-.692h5.539c.382 0 .692.31.692.692V24h9.462c.382 0 .692-.31.692-.692V12.877c-.505.179-1.05.277-1.615.277z" fill="#6E7FA0"/></g><defs><clipPath id="clip0"><path fill="#fff" d="M0 0h24v24H0z"/></clipPath></defs></svg>