<svg width="24" height="24" fill="none" xmlns="http://www.w3.org/2000/svg"><path d="M13.667 18.842c.552 0 1.014.456.866.988-.13.465-.35.892-.647 1.245-.5.592-1.179.925-1.886.925-.707 0-1.386-.333-1.886-.925a3.297 3.297 0 01-.647-1.245c-.148-.532.314-.988.866-.988h3.334zM4 17.81h8V2.02c-1.778-.02-5.647.738-5.647 5.79 0 5.053-1.02 5.81-2.353 7.895-1.333 2.084 0 2.105 0 2.105zM20 17.79h-8V2.02c1.778-.019 5.647.737 5.647 5.783s1.02 5.803 2.353 7.885c1.333 2.082 0 2.102 0 2.102z" fill="#8DA2CB"/></svg>