<svg width="12" height="12" viewBox="0 0 12 12" fill="none" xmlns="http://www.w3.org/2000/svg">
<path fill-rule="evenodd" clip-rule="evenodd" d="M6.55691 10.0539C7.54456 9.20541 9.5 7.24238 9.5 5C9.5 3.067 7.933 1.5 6 1.5C4.067 1.5 2.5 3.067 2.5 5C2.5 7.24238 4.45544 9.20541 5.44309 10.0539C5.7672 10.3323 6.2328 10.3323 6.55691 10.0539ZM6 6.5C6.82843 6.5 7.5 5.82843 7.5 5C7.5 4.17157 6.82843 3.5 6 3.5C5.17157 3.5 4.5 4.17157 4.5 5C4.5 5.82843 5.17157 6.5 6 6.5Z" fill="#29343B" fill-opacity="0.4"/>
</svg>
