<svg width="36" height="36" fill="none" xmlns="http://www.w3.org/2000/svg"><path d="M15.75 4.286h4.821v3.268H15.75V4.286zM18.16 13.982a4.025 4.025 0 00-3.936 3.214h7.874a4.025 4.025 0 00-3.937-3.214z" fill="#D81B60"/><path d="M12.593 17.196a5.633 5.633 0 015.568-4.821c2.829 0 5.176 2.1 5.567 4.821h4.88v-10.5c0-1.329-1.082-2.41-2.412-2.41H22.18v4.071c0 .444-.36.804-.804.804h-6.429a.804.804 0 01-.803-.804V4.286h-4.018a2.413 2.413 0 00-2.41 2.41v10.5h4.878z" fill="#F50057"/><path d="M18.16 12.375a5.633 5.633 0 00-5.567 4.821H7.714v-10.5c0-1.329 1.082-2.41 2.411-2.41h4.018v4.071c0 .444.36.804.803.804h6.429c.444 0 .804-.36.804-.804V4.286h4.017c-.267 2.535-2.25 7.703-8.035 8.089z" fill="#000" fill-opacity=".1"/><path d="M23.728 18.804a5.633 5.633 0 01-5.567 4.821 5.633 5.633 0 01-5.568-4.821H7.714v10.5c0 1.329 1.082 2.41 2.411 2.41h4.018v-4.071c0-.444.36-.804.803-.804h6.429c.444 0 .804.36.804.804v4.071h4.017c1.33 0 2.411-1.081 2.411-2.41v-10.5h-4.879z" fill="#D81B60"/><path d="M18.16 23.625c2.83 0 5.177-2.1 5.568-4.821h4.88v10.5c0 1.329-1.082 2.41-2.412 2.41H22.18v-4.071a.804.804 0 00-.804-.804h-6.429a.804.804 0 00-.803.804v4.071h-4.018a2.413 2.413 0 01-2.41-2.41c.803-1.733 4.017-5.293 10.446-5.679z" fill="#000" fill-opacity=".1"/><path d="M15.75 28.446h4.821v3.268H15.75v-3.268zM18.16 22.018a4.025 4.025 0 003.938-3.214h-7.874a4.025 4.025 0 003.937 3.214z" fill="#F50057"/></svg>