<svg width="36" height="36" fill="none" xmlns="http://www.w3.org/2000/svg"><path d="M10.617 25.961l-1.372-1.372H5.893v1.607c0 1.33 1.081 2.411 2.41 2.411h1.608c1.329 0 2.41-1.081 2.41-2.41h-1.136a.803.803 0 01-.568-.236zM25.383 25.961a.803.803 0 01-.568.235h-1.136c0 1.33 1.081 2.411 2.41 2.411h1.607c1.33 0 2.411-1.081 2.411-2.41v-1.608h-3.352l-1.372 1.372z" fill="#4E342E"/><path d="M29.304 14.143H6.696a2.41 2.41 0 00-2.41 2.41v5.626c0 .443.36.803.803.803h4.489c.213 0 .417.085.568.235l1.372 1.372h12.964l1.372-1.372a.803.803 0 01.568-.235h4.489c.444 0 .803-.36.803-.803v-5.625a2.41 2.41 0 00-2.41-2.411zM9.107 20.57A1.61 1.61 0 017.5 18.964a1.61 1.61 0 011.607-1.607 1.61 1.61 0 011.607 1.607 1.61 1.61 0 01-1.607 1.607zm12.16 1.608h-6.535a.803.803 0 110-1.608h6.536a.803.803 0 110 1.608zm1.608-3.215h-9.75a.803.803 0 110-1.607h9.75a.803.803 0 110 1.607zm4.018 1.607a1.61 1.61 0 01-1.607-1.607 1.61 1.61 0 011.607-1.607 1.61 1.61 0 011.607 1.607 1.61 1.61 0 01-1.607 1.607z" fill="#5D4037"/><path d="M5.09 22.982a.803.803 0 01-.804-.803c5.147-.226 7.82-1.575 10.278-3.108h9.007v-1.753h-6.214c2.607-1.536 5.842-2.905 11.947-3.175a2.41 2.41 0 012.41 2.41v5.626c0 .443-.36.803-.803.803h-4.489a.803.803 0 00-.568.235l-1.372 1.372H11.518l-1.372-1.372a.803.803 0 00-.568-.235H5.089z" fill="#000" fill-opacity=".1"/><path d="M25.201 8.158a.804.804 0 00-.719-.444H11.518a.804.804 0 00-.719.444L8.61 12.536h18.78L25.2 8.158z" fill="#4E342E"/></svg>