<svg width="36" height="36" fill="none" xmlns="http://www.w3.org/2000/svg"><path d="M10.714 14.943v13.302h14.87V14.943h-14.87zm4.176 5.638a.508.508 0 11-1.015 0v-1.614a.508.508 0 011.015 0v1.614z" fill="#E040FB"/><path d="M25.585 28.245h-14.87c4.413-1.096 13.566-5.29 14.87-13.302v13.302z" fill="#000" fill-opacity=".1"/><path d="M23.527 4.286H12.772a2.06 2.06 0 00-2.058 2.058v7.584h14.87V6.344a2.06 2.06 0 00-2.057-2.058zm-8.637 7.58a.508.508 0 11-1.015 0v-1.613a.508.508 0 111.015 0v1.614z" fill="#D500F9"/><path d="M12.772 4.286h10.755a2.06 2.06 0 012.058 2.058v7.584C23.914 11.4 18.6 6.344 10.715 6.344a2.06 2.06 0 012.057-2.058z" fill="#000" fill-opacity=".1"/><path d="M10.714 29.26v.396a2.06 2.06 0 002.058 2.058h10.755a2.06 2.06 0 002.058-2.058v-.396h-14.87z" fill="#D500F9"/></svg>